<?xml version="1.0" encoding="UTF-8"?><svg id="a" xmlns="http://www.w3.org/2000/svg" viewBox="0 0 1000 1000"><rect width="214.29" height="1000" style="fill:#d0d0d0;"/><rect x="785.71" width="214.29" height="1000" style="fill:#d0d0d0;"/><polygon points="500 428.57 1000 0 0 0 500 428.57" style="fill:#d0d0d0;"/><polygon points="214.29 785.71 90.57 1000 338 1000 214.29 785.71" style="fill:#d0d0d0;"/><polygon points="785.71 785.71 662 1000 909.43 1000 785.71 785.71" style="fill:#d0d0d0;"/><path d="M289.38,754.5v-279h37.72v279h-37.72ZM364.04,640.54l-31.83-115.53h-11.4v-49.51h27.9l31.83,119.85h1.57l3.93,45.19h-22.01ZM375.43,640.54l5.89-45.19h2.36l31.83-119.85h27.9v49.51h-11.4l-31.83,115.53h-24.76ZM437.13,754.5v-279h37.72v279h-37.72Z" style="fill:#d0d0d0;"/><path d="M617.1,758.43c-59.73,0-89.59-31.17-89.59-93.52v-189.4h39.3v189.4c0,18.6,4.09,32.62,12.28,42.05,8.18,9.43,21.12,14.15,38.8,14.15,34.05,0,51.08-18.73,51.08-56.19v-189.4h39.3v189.4c0,31.18-7.73,54.56-23.18,70.14-15.46,15.59-38.12,23.38-67.98,23.38Z" style="fill:#d0d0d0;"/></svg>